<svg width="48" height="48" viewBox="0 0 48 48" fill="none" xmlns="http://www.w3.org/2000/svg">
<path d="M48 24C48 37.2548 37.2548 48 24 48C10.7452 48 0 37.2548 0 24C0 10.7452 10.7452 0 24 0C37.2548 0 48 10.7452 48 24Z" fill="white"/>
<path d="M34.5 22.2857C34.9141 22.2857 35.2676 22.4531 35.5605 22.7879C35.8535 23.1228 36 23.5268 36 24C36 24.4732 35.8535 24.8772 35.5605 25.2121C35.2676 25.5469 34.9141 25.7143 34.5 25.7143H34.3242L32.9766 34.5804C32.9141 34.9911 32.7422 35.3304 32.4609 35.5982C32.1797 35.8661 31.8594 36 31.5 36H16.5C16.1406 36 15.8203 35.8661 15.5391 35.5982C15.2578 35.3304 15.0859 34.9911 15.0234 34.5804L13.6758 25.7143H13.5C13.0859 25.7143 12.7324 25.5469 12.4395 25.2121C12.1465 24.8772 12 24.4732 12 24C12 23.5268 12.1465 23.1228 12.4395 22.7879C12.7324 22.4531 13.0859 22.2857 13.5 22.2857H34.5ZM17.6836 33C17.8867 32.9821 18.0566 32.8817 18.1934 32.6987C18.3301 32.5156 18.3906 32.308 18.375 32.0759L18 26.5045C17.9844 26.2723 17.8965 26.0781 17.7363 25.9219C17.5762 25.7656 17.3945 25.6964 17.1914 25.7143C16.9883 25.7321 16.8184 25.8326 16.6816 26.0156C16.5449 26.1987 16.4844 26.4063 16.5 26.6384L16.875 32.2098C16.8906 32.433 16.9707 32.6205 17.1152 32.7723C17.2598 32.9241 17.4297 33 17.625 33H17.6836ZM22.5 32.1429V26.5714C22.5 26.3393 22.4258 26.1384 22.2773 25.9688C22.1289 25.7991 21.9531 25.7143 21.75 25.7143C21.5469 25.7143 21.3711 25.7991 21.2227 25.9688C21.0742 26.1384 21 26.3393 21 26.5714V32.1429C21 32.375 21.0742 32.5759 21.2227 32.7455C21.3711 32.9152 21.5469 33 21.75 33C21.9531 33 22.1289 32.9152 22.2773 32.7455C22.4258 32.5759 22.5 32.375 22.5 32.1429ZM27 32.1429V26.5714C27 26.3393 26.9258 26.1384 26.7773 25.9688C26.6289 25.7991 26.4531 25.7143 26.25 25.7143C26.0469 25.7143 25.8711 25.7991 25.7227 25.9688C25.5742 26.1384 25.5 26.3393 25.5 26.5714V32.1429C25.5 32.375 25.5742 32.5759 25.7227 32.7455C25.8711 32.9152 26.0469 33 26.25 33C26.4531 33 26.6289 32.9152 26.7773 32.7455C26.9258 32.5759 27 32.375 27 32.1429ZM31.125 32.2098L31.5 26.6384C31.5156 26.4063 31.4551 26.1987 31.3184 26.0156C31.1816 25.8326 31.0117 25.7321 30.8086 25.7143C30.6055 25.6964 30.4238 25.7656 30.2637 25.9219C30.1035 26.0781 30.0156 26.2723 30 26.5045L29.625 32.0759C29.6094 32.308 29.6699 32.5156 29.8066 32.6987C29.9434 32.8817 30.1133 32.9821 30.3164 33H30.375C30.5703 33 30.7402 32.9241 30.8848 32.7723C31.0293 32.6205 31.1094 32.433 31.125 32.2098ZM17.5781 15.9107L16.4883 21.4286H14.9414L16.125 15.5223C16.2734 14.7366 16.6211 14.096 17.168 13.6004C17.7148 13.1049 18.3398 12.8571 19.043 12.8571H21C21 12.625 21.0742 12.4241 21.2227 12.2545C21.3711 12.0848 21.5469 12 21.75 12H26.25C26.4531 12 26.6289 12.0848 26.7773 12.2545C26.9258 12.4241 27 12.625 27 12.8571H28.957C29.6602 12.8571 30.2852 13.1049 30.832 13.6004C31.3789 14.096 31.7266 14.7366 31.875 15.5223L33.0586 21.4286H31.5117L30.4219 15.9107C30.3359 15.5179 30.1582 15.1964 29.8887 14.9464C29.6191 14.6964 29.3086 14.5714 28.957 14.5714H27C27 14.8036 26.9258 15.0045 26.7773 15.1741C26.6289 15.3438 26.4531 15.4286 26.25 15.4286H21.75C21.5469 15.4286 21.3711 15.3438 21.2227 15.1741C21.0742 15.0045 21 14.8036 21 14.5714H19.043C18.6914 14.5714 18.3809 14.6964 18.1113 14.9464C17.8418 15.1964 17.6641 15.5179 17.5781 15.9107Z" fill="#FFA451"/>
</svg>
